<?xml version="1.0" standalone="no"?>
<!DOCTYPE svg PUBLIC "-//W3C//DTD SVG 1.1//EN" "http://www.w3.org/Graphics/SVG/1.1/DTD/svg11.dtd" >
<svg xmlns="http://www.w3.org/2000/svg">
<metadata></metadata>
<defs>
<font id="saya_semisans_fymedium" horiz-adv-x="1054" >
<font-face units-per-em="2048" ascent="1536" descent="-512" />
<missing-glyph horiz-adv-x="512" />
<glyph unicode="&#xfb01;" horiz-adv-x="1202" d="M61 954v90h144q2 77 21 145.5t59 128.5t97 104t140 69t183 25q59 0 115.5 -10t106 -30t79.5 -53.5t30 -76.5q0 -50 -31.5 -84.5t-80.5 -34.5t-81 34.5t-32 84.5q0 39 18 57q-65 14 -122 14q-62 0 -112.5 -20.5t-84.5 -55t-57 -82.5t-33 -102t-10 -113h618v-1044h-205v954 h-413v-954h-205v954h-144z" />
<glyph unicode="&#xfb02;" horiz-adv-x="1204" d="M61 954v90h144v13q0 102 25.5 183t79.5 143.5t144.5 96t213.5 33.5q109 0 243 -26l117 29v-1242q0 -93 15.5 -140t54.5 -73l-82 -81q-98 20 -145.5 80t-47.5 186v1165q-78 10 -135 10q-141 0 -209.5 -94.5t-68.5 -255.5v-27h206v-90h-206v-954h-205v954h-144z" />
<glyph unicode="&#xfb03;" horiz-adv-x="1816" d="M61 954v90h144v31q0 215 99.5 324.5t334.5 116.5v-91q-125 -6 -177 -86t-52 -252v-43h409q2 77 21 145.5t59 128.5t97 104t140 69t183 25q78 0 149 -16t125 -55t58 -93v-6q0 -50 -32 -84.5t-81 -34.5t-81 34.5t-32 84.5q0 38 19 57q-65 14 -123 14q-62 0 -112.5 -20.5 t-84.5 -55t-57 -82.5t-33 -102t-10 -113h618v-1044h-204v954h-414v-954h-205v954h-409v-954h-205v954h-144z" />
<glyph unicode="&#xfb04;" horiz-adv-x="1818" d="M61 954v90h144v31q0 215 99.5 324.5t334.5 116.5v-91q-125 -6 -177 -86t-52 -252v-43h409v13q0 102 25.5 183t79.5 143.5t144.5 96t213.5 33.5q110 0 244 -26l116 29v-1242q0 -93 15.5 -140t54.5 -73l-82 -81q-98 20 -145 80t-47 186v1165q-78 10 -135 10 q-142 0 -210.5 -94.5t-68.5 -255.5v-27h207v-90h-207v-954h-205v954h-409v-954h-205v954h-144z" />
<glyph horiz-adv-x="0" />
<glyph horiz-adv-x="0" />
<glyph horiz-adv-x="682" />
<glyph unicode="&#xd;" horiz-adv-x="0" />
<glyph unicode=" "  horiz-adv-x="512" />
<glyph unicode="&#x09;" horiz-adv-x="512" />
<glyph unicode="&#xa0;" horiz-adv-x="512" />
<glyph unicode="!" horiz-adv-x="641" d="M195 117q0 52 36.5 89.5t87.5 37.5q53 0 90 -37t37 -90q0 -51 -37.5 -88t-89.5 -37q-51 0 -87.5 37t-36.5 88zM197 1393h245l-77 -983h-93z" />
<glyph unicode="&#x22;" horiz-adv-x="886" d="M168 1393h209l-39 -457h-131zM510 1393h209l-39 -457h-131z" />
<glyph unicode="#" horiz-adv-x="1390" d="M72 354l34 92h203l168 484h-213l35 92h209l131 371h166l-129 -371h268l131 371h166l-129 -371h207l-35 -92h-205l-168 -484h215l-34 -92h-213l-123 -354h-166l123 354h-271l-123 -354h-165l122 354h-204zM475 446h270l168 484h-270z" />
<glyph unicode="$" horiz-adv-x="1136" d="M115 174l73 72q145 -168 344 -168q119 0 187.5 69t68.5 181q0 93 -53 157.5t-184 124.5l-143 66q-129 57 -200 145.5t-71 225.5q0 62 20.5 119.5t60.5 107.5t108 85.5t155 47.5v221h168v-221q217 -32 336 -244l-156 -88q-83 240 -268 240q-100 0 -158.5 -61.5 t-58.5 -157.5q0 -164 201 -256l145 -66q151 -67 231 -158.5t80 -230.5q0 -165 -95.5 -266.5t-256.5 -128.5v-226h-168v218q-225 20 -366 192z" />
<glyph unicode="%" horiz-adv-x="1587" d="M66 1075q0 160 86 249t210 89q132 0 211.5 -93.5t79.5 -254.5q0 -156 -84.5 -247t-210.5 -91q-135 0 -213.5 95.5t-78.5 252.5zM236 80l978 1286l111 -84l-981 -1288zM238 1071q0 -252 122 -252q121 0 121 246q0 256 -121 256q-122 0 -122 -250zM934 328q0 159 86 248.5 t209 89.5q133 0 213 -94t80 -255q0 -156 -85 -246.5t-212 -90.5q-135 0 -213 95.5t-78 252.5zM1106 324q0 -252 121 -252q123 0 123 245q0 256 -123 256q-121 0 -121 -249z" />
<glyph unicode="&#x26;" horiz-adv-x="1439" d="M143 332q0 53 15.5 101.5t39.5 84.5t62.5 72.5t73.5 62t84 56.5q-103 112 -151 196t-48 180q0 147 108.5 237.5t272.5 90.5q169 0 255.5 -85t86.5 -208q0 -39 -9.5 -75t-21.5 -62.5t-39.5 -56.5t-45.5 -47t-58.5 -44.5t-59.5 -39.5t-67 -41l369 -385q82 175 82 376h96 q0 -245 -111 -444q98 -101 148.5 -137.5t126.5 -59.5l-62 -124q-92 0 -168.5 37.5t-165.5 123.5q-164 -161 -397 -161q-189 0 -302.5 94.5t-113.5 257.5zM354 344q0 -129 67 -198.5t187 -69.5q162 0 289 127l-412 434q-131 -121 -131 -293zM424 1120q0 -74 38.5 -145 t119.5 -160q93 67 143.5 138t50.5 169q0 85 -49 139t-125 54q-79 0 -128.5 -55t-49.5 -140z" />
<glyph unicode="'" horiz-adv-x="544" d="M168 1393h209l-39 -457h-131z" />
<glyph unicode="(" horiz-adv-x="768" d="M154 594q0 542 512 975l55 -82q-190 -223 -275.5 -438.5t-85.5 -454.5q0 -238 86 -454.5t275 -440.5l-55 -80q-260 220 -386 461t-126 514z" />
<glyph unicode=")" horiz-adv-x="768" d="M45 -301q189 224 275 440.5t86 454.5q0 239 -85.5 454.5t-275.5 438.5l55 82q261 -224 386.5 -463.5t125.5 -511.5t-125.5 -511.5t-386.5 -463.5z" />
<glyph unicode="*" horiz-adv-x="747" d="M51 1204l47 148l246 -135l-47 278h156l-54 -274l248 133l49 -150l-282 -35l207 -196l-127 -92l-119 252l-123 -252l-127 92l205 190z" />
<glyph unicode="+" horiz-adv-x="1320" d="M256 629v92h358v375h97v-375h354v-92h-354v-383h-97v383h-358z" />
<glyph unicode="," horiz-adv-x="532" d="M145 106q0 60 36 99t89 39q65 0 96 -50t31 -128q0 -141 -141 -328h-92q89 147 108 266q-9 -6 -34 -6q-45 0 -69 29.5t-24 78.5z" />
<glyph unicode="-" horiz-adv-x="897" d="M174 514v102h549v-102h-549z" />
<glyph unicode="." horiz-adv-x="532" d="M141 117q0 52 37 89.5t88 37.5q52 0 89.5 -37t37.5 -90q0 -51 -37.5 -88t-89.5 -37q-51 0 -88 37t-37 88z" />
<glyph unicode="/" horiz-adv-x="884" d="M35 0l614 1393h201l-614 -1393h-201z" />
<glyph unicode="0" horiz-adv-x="1218" d="M113 707q0 179 36.5 315.5t103.5 221.5t157 127t202 42q240 0 367 -188.5t127 -538.5q0 -345 -134.5 -525.5t-365.5 -180.5q-236 0 -364.5 183t-128.5 544zM330 702q0 -620 278 -620q148 0 213.5 144t65.5 464q0 621 -277 621q-146 0 -213 -143.5t-67 -465.5z" />
<glyph unicode="1" horiz-adv-x="983" d="M102 1124l387 269h205v-1301h242v-92h-752v92h305v1168l-333 -224z" />
<glyph unicode="2" horiz-adv-x="1097" d="M88 1083q146 330 459 330q199 0 309.5 -100.5t110.5 -263.5q0 -34 -3.5 -65t-15 -66t-21 -62.5t-34 -69.5t-40.5 -69t-54.5 -78.5t-61.5 -81.5t-76 -95t-84 -102t-98 -118l-125 -150h652v-92h-912v82l219 258q110 130 168.5 201t119.5 154t88 137t44 112.5t17 118.5 q0 111 -59 179.5t-159 68.5q-98 0 -164 -83.5t-104 -228.5z" />
<glyph unicode="3" horiz-adv-x="1073" d="M74 186l73 72q63 -85 136 -130.5t174 -45.5q126 0 206 77.5t80 211.5t-90 210t-280 76v101q171 0 251.5 82t80.5 217q0 111 -58 182.5t-158 71.5q-178 0 -266 -244l-147 86q147 260 430 260q185 0 300.5 -96t115.5 -252q0 -120 -62 -209.5t-180 -140.5q281 -81 281 -332 q0 -185 -132.5 -294t-336.5 -109q-142 0 -243 52.5t-175 153.5z" />
<glyph unicode="4" horiz-adv-x="1114" d="M76 328v92l622 973h162v-973h178v-92h-178v-328h-190v328h-594zM221 420h449v713z" />
<glyph unicode="5" horiz-adv-x="1015" d="M55 133l64 74q113 -125 278 -125q149 0 234.5 99t85.5 263q0 161 -96 251.5t-254 90.5q-99 0 -174 -32l-33 14l55 625h619v-93h-424l-39 -444q46 16 121 16q196 0 319 -114.5t123 -306.5q0 -214 -131.5 -342.5t-362.5 -128.5q-119 0 -218 40.5t-167 112.5z" />
<glyph unicode="6" horiz-adv-x="1169" d="M113 678q0 150 32.5 275.5t86.5 208.5t125 141t146 84t152 26q235 0 377 -182l-123 -107q-51 95 -112 141t-142 46q-133 0 -226.5 -141t-104.5 -404q137 121 321 121q193 0 307.5 -112t114.5 -312q0 -136 -54.5 -245.5t-159.5 -173.5t-243 -64q-162 0 -274.5 86 t-167.5 241.5t-55 370.5zM324 666q5 -584 284 -584q123 0 183.5 101t60.5 268q0 157 -64.5 245t-201.5 88q-73 0 -142 -32t-120 -86z" />
<glyph unicode="7" horiz-adv-x="933" d="M72 1300v93h807v-93l-572 -1300h-203l572 1300h-604z" />
<glyph unicode="8" horiz-adv-x="1153" d="M102 319q0 128 89 225t237 156q-60 34 -103 65.5t-83.5 75t-61 99.5t-20.5 123q0 153 124 251.5t312 98.5q193 0 295 -91t102 -222q0 -211 -272 -340q60 -32 99 -55.5t87.5 -61t76.5 -74.5t47.5 -89.5t19.5 -112.5q0 -177 -134.5 -282t-357.5 -105q-210 0 -333.5 90.5 t-123.5 248.5zM317 340q0 -116 69.5 -187t193.5 -71q116 0 186 66.5t70 168.5q0 29 -6.5 56.5t-15 49.5t-27.5 45t-32.5 38.5t-43 36t-45 31.5t-52.5 31t-53 28t-57 29q-89 -58 -138 -141.5t-49 -180.5zM379 1102q0 -54 20 -99t62 -82.5t82.5 -63.5t103.5 -60 q139 118 139 282q0 103 -54 167.5t-152 64.5q-93 0 -147 -61.5t-54 -147.5z" />
<glyph unicode="9" horiz-adv-x="1179" d="M102 932q0 131 56.5 240t163.5 175t245 66q236 0 366 -187t130 -511q0 -152 -31.5 -276.5t-85.5 -208.5t-128 -141t-157 -83t-174 -26q-203 0 -331 114l61 90q117 -102 262 -102q75 0 138 31t114 94t82.5 169t36.5 247q-140 -117 -336 -117q-191 0 -301.5 107.5 t-110.5 318.5zM313 936q0 -158 65 -243t200 -85q155 0 274 119q-11 584 -289 584q-117 0 -183.5 -103t-66.5 -272z" />
<glyph unicode=":" horiz-adv-x="532" d="M141 117q0 52 37 89.5t88 37.5q52 0 89.5 -37t37.5 -90q0 -51 -37.5 -88t-89.5 -37q-51 0 -88 37t-37 88zM141 928q0 52 37 89.5t88 37.5q52 0 89.5 -37.5t37.5 -89.5q0 -51 -37.5 -88t-89.5 -37q-51 0 -88 37t-37 88z" />
<glyph unicode=";" horiz-adv-x="532" d="M141 928q0 52 37 89.5t88 37.5q52 0 89.5 -37.5t37.5 -89.5q0 -51 -37.5 -88t-89.5 -37q-51 0 -88 37t-37 88zM145 106q0 60 36 99t89 39q65 0 96 -50t31 -128q0 -141 -141 -328h-92q89 147 108 266q-9 -6 -34 -6q-45 0 -69 29.5t-24 78.5z" />
<glyph unicode="&#x3c;" horiz-adv-x="1320" d="M256 657v105l791 364l18 -106l-692 -311l692 -310l-18 -106z" />
<glyph unicode="=" horiz-adv-x="1320" d="M256 442v93h809v-93h-809zM256 821v92h809v-92h-809z" />
<glyph unicode="&#x3e;" horiz-adv-x="1320" d="M256 399l692 310l-692 311l18 106l791 -364v-105l-791 -364z" />
<glyph unicode="?" horiz-adv-x="1058" d="M137 1096q20 66 54.5 121t85 100t123 70.5t159.5 25.5q168 0 271.5 -87t103.5 -232q0 -63 -21 -118t-55 -97t-75 -81t-81.5 -77t-74.5 -77.5t-55 -90t-21 -107.5v-57h-109v62q0 74 20.5 140.5t51.5 113t67.5 97t67.5 93t51.5 100t20.5 119.5q0 100 -48 150.5t-126 50.5 q-91 0 -152 -70.5t-88 -195.5zM377 117q0 53 37.5 90t89.5 37q51 0 88 -37.5t37 -89.5q0 -51 -37 -88t-88 -37q-52 0 -89.5 37t-37.5 88z" />
<glyph unicode="@" horiz-adv-x="1710" d="M113 406q0 239 91.5 423t263.5 287t400 103q170 0 308.5 -55.5t230 -152t141 -226.5t49.5 -281q0 -238 -92.5 -381t-261.5 -143q-87 0 -152 43.5t-87 117.5q-65 -81 -127.5 -121t-145.5 -40q-95 0 -156 56.5t-61 149.5q0 110 71.5 177t213.5 104l178 45v82 q0 81 -32.5 126.5t-98.5 45.5q-61 0 -96.5 -40t-63.5 -120l-131 56q46 95 117 147.5t186 52.5q142 0 218.5 -70.5t76.5 -213.5v-320q0 -94 30.5 -138t98.5 -44q39 0 73 20t64 65t47 128t17 198q0 107 -25 202t-76 174.5t-123.5 137t-172.5 89.5t-218 32q-197 0 -343.5 -91 t-222 -250t-75.5 -365q0 -175 48.5 -313t134.5 -226t202 -134t254 -46q196 0 361 76l24 -99q-150 -73 -403 -73q-159 0 -294.5 55.5t-233 157.5t-152.5 254t-55 338zM700 215q0 -63 26.5 -101t74.5 -38q53 0 99.5 37.5t76.5 99.5v231l-86 -20q-96 -25 -143.5 -80t-47.5 -129 z" />
<glyph unicode="A" horiz-adv-x="1163" d="M41 0l473 1393h123l479 -1393h-229l-125 383h-488l-127 -383h-106zM305 475h426l-211 649z" />
<glyph unicode="B" horiz-adv-x="1193" d="M184 0v1393h351q241 0 358 -91.5t117 -244.5q0 -241 -254 -320q158 -30 236.5 -113t78.5 -227q0 -176 -137 -286.5t-379 -110.5h-371zM393 92h152q83 0 144.5 24t96.5 67t51.5 95t16.5 115q0 132 -74 211.5t-227 79.5h-160v-592zM393 774h129q130 0 200.5 74t70.5 194 q0 121 -68.5 189.5t-194.5 68.5h-137v-526z" />
<glyph unicode="C" horiz-adv-x="1183" d="M113 711q0 166 43.5 300t119 221.5t177.5 134t221 46.5q155 0 253.5 -65t170.5 -189l-156 -92q-48 115 -110 181.5t-154 66.5q-107 0 -186.5 -84t-118.5 -220.5t-39 -305.5q0 -175 42 -316t126.5 -226t197.5 -85q98 0 179 50.5t137 133.5l74 -57q-71 -103 -175.5 -164 t-238.5 -61q-276 0 -419.5 193t-143.5 538z" />
<glyph unicode="D" horiz-adv-x="1304" d="M184 0v1393h322q327 0 506.5 -172t179.5 -504q0 -354 -188.5 -535.5t-540.5 -181.5h-279zM393 92h74q241 0 372.5 162t131.5 453q0 278 -127 435.5t-363 157.5h-88v-1208z" />
<glyph unicode="E" horiz-adv-x="1067" d="M184 0v1393h770v-93h-561v-532h418v-92h-418v-584h561v-92h-770z" />
<glyph unicode="F" horiz-adv-x="1036" d="M184 0v1393h750v-93h-541v-593h418v-93h-418v-614h-209z" />
<glyph unicode="G" horiz-adv-x="1288" d="M113 711q0 170 44 305t122.5 221t183.5 131t231 45q286 0 461 -278l-172 -88q-104 268 -289 268q-166 0 -263 -160t-97 -450q0 -300 102 -463.5t279 -163.5q75 0 133 27t115 83v365h-213v92h417v-530q-203 -135 -454 -135q-296 0 -448 193t-152 538z" />
<glyph unicode="H" horiz-adv-x="1396" d="M184 0v1393h209v-615h611v615h208v-1393h-208v686h-611v-686h-209z" />
<glyph unicode="I" horiz-adv-x="577" d="M184 0v1393h209v-1393h-209z" />
<glyph unicode="J" horiz-adv-x="860" d="M78 86l59 76q87 -84 178 -84q160 0 160 270v952h-332v93h543v-1018q0 -104 -27.5 -181.5t-76.5 -123.5t-110.5 -68t-135.5 -22q-86 0 -144.5 26.5t-113.5 79.5z" />
<glyph unicode="K" horiz-adv-x="1251" d="M184 0v1393h209v-717l598 717h133l-491 -578l297 -465q131 -214 270 -244l-61 -126q-237 0 -383 247l-264 424l-99 -116v-535h-209z" />
<glyph unicode="L" horiz-adv-x="1042" d="M184 0v1393h209v-1301h557v-92h-766z" />
<glyph unicode="M" horiz-adv-x="1603" d="M184 0v1393h115v-19l45 19l467 -957l459 957h149v-1393h-194v1044l-410 -839h-110l-406 823v-1028h-115z" />
<glyph unicode="N" horiz-adv-x="1302" d="M184 0v1393h103l714 -1055v1055h117v-1393h-114l-699 1010v-1010h-121z" />
<glyph unicode="O" horiz-adv-x="1349" d="M113 711q0 171 42 305.5t117.5 220.5t178.5 131t227 45q140 0 247.5 -52t175.5 -149t102 -230t34 -300q0 -171 -42 -305.5t-118 -220.5t-179 -131t-228 -45q-276 0 -416.5 195t-140.5 536zM334 705q0 -307 89.5 -467t248.5 -160q167 0 255.5 154t88.5 456 q0 306 -90 466.5t-250 160.5q-342 0 -342 -610z" />
<glyph unicode="P" horiz-adv-x="1169" d="M184 0v1393h310q290 0 426.5 -115t136.5 -322q0 -230 -155.5 -351.5t-444.5 -121.5h-64v-483h-209zM393 575h86q178 0 269.5 100.5t91.5 268.5q0 169 -90 262.5t-271 93.5h-86v-725z" />
<glyph unicode="Q" horiz-adv-x="1349" d="M113 711q0 171 42 305.5t117.5 220.5t178.5 131t227 45q140 0 247.5 -52t175.5 -149t102 -230t34 -300q0 -299 -122.5 -476.5t-330.5 -215.5l90 -84q68 -70 130 -101.5t143 -46.5l-96 -135q-84 0 -154.5 52.5t-153.5 172.5l-92 134q-180 4 -302 96.5t-179 252t-57 380.5z M334 705q0 -307 89.5 -467t248.5 -160q167 0 255.5 154t88.5 456q0 306 -90 466.5t-250 160.5q-342 0 -342 -610z" />
<glyph unicode="R" horiz-adv-x="1177" d="M184 0v1393h283q279 0 416 -103t137 -289q0 -154 -90 -256.5t-254 -142.5l147 -240q76 -123 143 -180.5t152 -70.5l-63 -131q-121 0 -212 54t-167 189l-197 355h-86v-578h-209zM393 666h66q166 0 255 90t89 235q0 143 -99 226t-262 83h-49v-634z" />
<glyph unicode="S" horiz-adv-x="1064" d="M68 211l73 68q65 -93 155.5 -147t201.5 -54q120 0 191 67.5t71 176.5q0 95 -53.5 161t-184.5 127l-143 66q-129 57 -199.5 145.5t-70.5 225.5q0 55 15 106.5t49 99t83 83t122.5 56.5t162.5 21q277 0 426 -254l-154 -88q-47 115 -114.5 179.5t-174.5 64.5 q-95 0 -152 -61.5t-57 -157.5q0 -162 201 -254l146 -66q75 -34 128.5 -69t96.5 -82t64.5 -107.5t21.5 -136.5q0 -128 -63.5 -220t-170.5 -136.5t-245 -44.5q-140 0 -248.5 64t-177.5 167z" />
<glyph unicode="T" horiz-adv-x="1058" d="M45 1300v93h969v-93h-379v-1300h-211v1300h-379z" />
<glyph unicode="U" horiz-adv-x="1277" d="M178 502v891h211v-899q0 -207 78 -311.5t217 -104.5q144 0 227.5 102t83.5 318v895h109v-893q0 -256 -120 -388t-329 -132q-477 0 -477 522z" />
<glyph unicode="V" horiz-adv-x="1165" d="M45 1393h225l371 -1135l377 1135h106l-483 -1393h-113z" />
<glyph unicode="W" horiz-adv-x="1792" d="M45 1393h231l291 -1180l344 1057h101l327 -1059l306 1182h106l-377 -1393h-166l-303 956l-315 -956h-176z" />
<glyph unicode="X" horiz-adv-x="1212" d="M63 0l429 682l-426 711h247l342 -570l359 570h114l-423 -654l446 -739h-248l-356 592l-369 -592h-115z" />
<glyph unicode="Y" horiz-adv-x="1138" d="M35 1393h229l371 -746l369 746h104l-436 -856v-537h-211v541z" />
<glyph unicode="Z" horiz-adv-x="1075" d="M102 0v106l658 1194h-658v93h871v-109l-658 -1192h664v-92h-877z" />
<glyph unicode="[" horiz-adv-x="774" d="M256 -369v1925h467v-92h-262v-1740h262v-93h-467z" />
<glyph unicode="\" horiz-adv-x="886" d="M35 1393h203l614 -1393h-203z" />
<glyph unicode="]" horiz-adv-x="774" d="M51 -276h262v1740h-262v92h467v-1925h-467v93z" />
<glyph unicode="^" horiz-adv-x="1320" d="M319 766l332 627h94l332 -627l-92 -29l-287 563l-286 -563z" />
<glyph unicode="_" horiz-adv-x="948" d="M61 0h826v-102h-826v102z" />
<glyph unicode="`" horiz-adv-x="1024" d="M332 1395l121 118q99 -130 262 -286l-45 -49q-190 94 -338 217z" />
<glyph unicode="a" d="M96 236q0 58 18.5 105t49 80.5t81.5 62t103 48t127 41.5l209 60v37q0 138 -47 217.5t-148 79.5q-82 0 -133 -47.5t-80 -157.5l-151 55q47 121 147 184.5t236 63.5q181 0 281 -94t100 -281v-426q0 -82 13.5 -128.5t53.5 -72.5l-79 -83q-85 15 -127.5 67.5t-57.5 157.5 q-133 -225 -340 -225q-112 0 -184 68.5t-72 187.5zM311 268q0 -81 36.5 -127.5t98.5 -46.5q135 0 238 201v262l-111 -33q-140 -42 -201 -103t-61 -153z" />
<glyph unicode="b" horiz-adv-x="1128" d="M174 88v1376l205 52v-543q92 92 239 92q189 0 297.5 -140.5t108.5 -396.5q0 -262 -123.5 -405t-351.5 -143q-225 0 -375 108zM379 150q32 -32 80 -53t102 -21q131 0 191.5 112.5t60.5 337.5q0 208 -61.5 322.5t-180.5 114.5q-112 0 -192 -97v-716z" />
<glyph unicode="c" horiz-adv-x="952" d="M104 522q0 135 35 240.5t96.5 170.5t142.5 98.5t177 33.5q117 0 209.5 -62t132.5 -178l-141 -63q-21 102 -73 153.5t-126 51.5q-117 0 -176 -113.5t-59 -325.5q0 -229 60.5 -340.5t188.5 -111.5q156 0 240 172l61 -37q-45 -107 -131.5 -169t-210.5 -62q-215 0 -320.5 140 t-105.5 402z" />
<glyph unicode="d" horiz-adv-x="1130" d="M104 522q0 256 119.5 399.5t327.5 143.5q103 0 199 -35v434l204 52v-1242q0 -93 15.5 -140t54.5 -73l-82 -81q-69 14 -112 46t-64 93q-101 -139 -260 -139q-182 0 -292 137.5t-110 404.5zM315 522q0 -226 68.5 -333t171.5 -107q115 0 197 115q-2 16 -2 49v665 q-87 56 -179 56q-75 0 -127.5 -35t-79.5 -99.5t-38 -139t-11 -171.5z" />
<glyph unicode="e" d="M104 532q0 133 37.5 237.5t101 167.5t141.5 95.5t165 32.5q215 -1 317 -151q82 -122 83 -305q0 -44 -5 -91h-631q1 -227 71.5 -334.5t209.5 -107.5q77 0 146.5 40t119.5 124l60 -39q-52 -103 -144.5 -162t-206.5 -59q-235 0 -350 145t-115 407zM313 598h435 q-1 74 -12 137.5t-33.5 117t-63 84t-94.5 30.5q-101 0 -161.5 -92t-70.5 -277z" />
<glyph unicode="f" horiz-adv-x="696" d="M61 954v90h144v31q0 215 99.5 324.5t334.5 116.5v-91q-125 -6 -177 -86t-52 -252v-43h229v-90h-229v-954h-205v954h-144z" />
<glyph unicode="g" horiz-adv-x="999" d="M66 -195q0 72 48.5 135.5t137.5 106.5q-48 25 -72 69t-24 93q0 117 133 194q-86 39 -132 118t-46 190q0 166 105.5 260t262.5 94q88 0 164 -29q125 5 279 45l18 -108q-66 -16 -139 -16q-21 0 -43 1q86 -92 86 -245q0 -166 -106 -255t-265 -89q-73 0 -125 14 q-57 -42 -57 -100q0 -93 133 -93h192q357 0 357 -262q0 -116 -70.5 -203t-191.5 -131.5t-275 -44.5q-173 0 -271.5 67t-98.5 189zM211 -160q0 -93 66.5 -143.5t187.5 -50.5q154 0 261.5 65.5t107.5 169.5q0 67 -48 103t-159 36h-252q-18 0 -58 5q-46 -31 -76 -78.5 t-30 -106.5zM305 721q0 -127 46 -193.5t124 -66.5q80 0 127 62t47 184q0 128 -46.5 196t-123.5 68q-79 0 -126.5 -67t-47.5 -183z" />
<glyph unicode="h" horiz-adv-x="1177" d="M174 0v1464l205 52v-584q47 59 122.5 96t166.5 37q159 0 247.5 -91t88.5 -263v-437q0 -86 13.5 -135t53.5 -78l-80 -81q-104 18 -148 82.5t-44 183.5v469q0 237 -197 237q-135 0 -223 -123v-829h-205z" />
<glyph unicode="i" horiz-adv-x="587" d="M76 954v90h338v-1044h-205v954h-133zM195 1346q0 50 33.5 84t84.5 34q50 0 84.5 -34.5t34.5 -83.5q0 -51 -34.5 -85t-84.5 -34q-51 0 -84.5 34t-33.5 85z" />
<glyph unicode="j" horiz-adv-x="593" d="M57 -391q89 59 123.5 147t34.5 228v970h-135v90h340v-1048q0 -323 -270 -447zM199 1346q0 50 34.5 84t83.5 34q50 0 84.5 -34.5t34.5 -83.5q0 -50 -35 -84.5t-84 -34.5t-83.5 34.5t-34.5 84.5z" />
<glyph unicode="k" horiz-adv-x="1064" d="M174 0v1464l205 52v-898h125l325 426h156l-352 -438l168 -293q73 -128 115.5 -175.5t113.5 -65.5l-49 -92q-123 5 -202 56t-146 179l-162 297h-92v-512h-205z" />
<glyph unicode="l" horiz-adv-x="552" d="M174 246v1218l205 52v-1242q0 -93 14.5 -140t52.5 -73l-79 -81q-98 20 -145.5 80t-47.5 186z" />
<glyph unicode="m" horiz-adv-x="1763" d="M174 0v1044h141l50 -129q50 67 124.5 108.5t167.5 41.5q209 0 287 -162q57 77 138.5 119.5t177.5 42.5q159 0 243 -90t84 -264v-437q0 -85 14 -134.5t56 -78.5l-82 -81q-104 18 -148.5 82.5t-44.5 183.5v469q0 237 -176 237q-75 0 -136.5 -39.5t-96.5 -99.5 q10 -52 10 -102v-711h-205v715q0 119 -50 178t-130 59q-129 0 -219 -125v-827h-205z" />
<glyph unicode="n" horiz-adv-x="1177" d="M174 0v1044h141l50 -129q48 65 127.5 107.5t169.5 42.5q165 0 253.5 -93t88.5 -261v-439q0 -86 13 -134t54 -77l-82 -81q-92 19 -141 79t-49 187v469q0 121 -52.5 179t-144.5 58q-134 0 -223 -123v-829h-205z" />
<glyph unicode="o" horiz-adv-x="1089" d="M104 532q0 129 35.5 232t96.5 168t140.5 99t170.5 34q212 0 325 -147t113 -406q0 -128 -35.5 -231t-97 -167.5t-141.5 -99t-170 -34.5q-211 0 -324 145.5t-113 406.5zM315 526q0 -216 61.5 -333t166.5 -117q114 0 171.5 113t57.5 329q0 223 -60 336t-167 113 q-230 0 -230 -441z" />
<glyph unicode="p" horiz-adv-x="1130" d="M174 -430v1474h141l43 -100q103 121 267 121q185 0 293 -140t108 -399q0 -260 -125 -403t-352 -143q-94 0 -170 20v-430h-205zM379 141q78 -65 182 -65q252 0 252 446q0 208 -61.5 324.5t-180.5 116.5q-113 0 -192 -93v-729z" />
<glyph unicode="q" horiz-adv-x="1130" d="M104 522q3 249 124 396t356 147q222 0 372 -102v-1393h-204v520q-96 -110 -244 -110q-88 0 -161 32.5t-128.5 97t-85.5 170.5q-29 102 -29 233v9zM317 522q0 -213 66.5 -321.5t169.5 -108.5q63 0 110 30t89 89v684q-88 72 -183 72q-115 0 -183.5 -109.5t-68.5 -335.5z " />
<glyph unicode="r" horiz-adv-x="776" d="M174 0v1044h141l54 -131q115 152 336 152v-160q-115 0 -189 -16t-137 -68v-821h-205z" />
<glyph unicode="s" horiz-adv-x="884" d="M74 188l92 60q88 -172 256 -172q88 0 137 46t49 120q0 70 -51.5 119.5t-179.5 105.5q-69 31 -115 58.5t-83.5 63t-55 80.5t-17.5 101q0 129 101 212t252 83q123 0 220 -62.5t134 -173.5l-137 -65q-24 93 -82.5 148t-138.5 55q-73 0 -117.5 -41t-44.5 -103q0 -31 10 -55.5 t24 -42t48.5 -38t64 -34.5t90.5 -41q140 -62 205.5 -139t65.5 -182q0 -60 -22.5 -114.5t-67 -99t-118.5 -71t-169 -26.5q-121 0 -214 53.5t-136 154.5z" />
<glyph unicode="t" horiz-adv-x="710" d="M66 954v90h143v213l205 72v-285h229v-90h-229v-524q0 -157 48.5 -241t176.5 -121l-84 -88q-178 14 -262 120.5t-84 284.5v569h-143z" />
<glyph unicode="u" horiz-adv-x="1081" d="M158 387v657h204v-677q0 -291 209 -291q112 0 164.5 79.5t52.5 219.5v669h144v-663q0 -190 -102 -295.5t-283 -105.5q-389 0 -389 407z" />
<glyph unicode="v" horiz-adv-x="1007" d="M20 954v90h304l249 -890l158 444q96 286 96 446h119q0 -68 -19 -154.5t-43 -158t-71 -202.5q-11 -29 -16 -44l-187 -485h-161l-318 954h-111z" />
<glyph unicode="w" horiz-adv-x="1560" d="M20 954v90h304l215 -882q134 456 176.5 624.5t48.5 257.5h184l217 -880l119 414q49 172 72.5 278.5t23.5 187.5h119q0 -32 -3 -64.5t-12.5 -74.5t-16 -70.5t-23.5 -84.5t-25.5 -81.5t-32 -97t-32.5 -98.5l-154 -473h-160l-211 799q-46 -170 -256 -799h-159l-283 954h-111 z" />
<glyph unicode="x" horiz-adv-x="954" d="M49 1044h232l258 -432l125 185q104 160 112 247h125q-14 -68 -49 -131t-117 -176l-149 -205l321 -532h-229l-266 440l-129 -196q-106 -160 -113 -244h-117q12 70 41.5 128.5t106.5 166.5l161 225z" />
<glyph unicode="y" horiz-adv-x="983" d="M20 954v90h283l252 -839l172 446q82 217 82 393h119q0 -113 -27 -208.5t-98 -270.5l-268 -655q-70 -173 -128.5 -254t-125.5 -107l-62 62q82 50 132.5 123.5t92.5 181.5l17 47l-350 991h-91z" />
<glyph unicode="z" horiz-adv-x="882" d="M80 0v72l487 882h-467v90h691v-71l-490 -883h244q161 0 260 47l29 -90q-86 -47 -246 -47h-508z" />
<glyph unicode="{" horiz-adv-x="794" d="M92 547v94h33q131 0 131 184v369q0 177 98.5 269.5t270.5 92.5h118v-92h-77q-107 0 -156 -68.5t-49 -178.5v-408q0 -95 -42 -148t-102 -67q60 -14 102 -67t42 -148v-418q0 -108 48.5 -172.5t156.5 -64.5h77v-93h-118q-172 0 -270.5 92t-98.5 269v370q0 185 -131 185h-33z " />
<glyph unicode="|" horiz-adv-x="634" d="M215 -430v1925h209v-1925h-209z" />
<glyph unicode="}" horiz-adv-x="794" d="M51 -276h78q108 0 156.5 64.5t48.5 172.5v418q0 96 42 148.5t101 66.5q-59 14 -101 66.5t-42 148.5v408q0 110 -49 178.5t-156 68.5h-78v92h119q171 0 270 -92.5t99 -269.5v-369q0 -184 129 -184h34v-94h-34q-129 0 -129 -185v-370q0 -177 -99 -269t-270 -92h-119v93z " />
<glyph unicode="~" horiz-adv-x="1320" d="M244 686q100 92 209 92q57 0 124 -26t132.5 -52t117.5 -26q102 0 195 96l53 -68q-121 -124 -248 -124q-71 0 -195.5 52t-185.5 52q-81 0 -155 -68z" />
<glyph unicode="&#xa1;" horiz-adv-x="641" d="M195 938q0 52 36.5 89.5t87.5 37.5q53 0 90 -37.5t37 -89.5q0 -51 -37.5 -88t-89.5 -37q-51 0 -87.5 37t-36.5 88zM199 -336l75 983h93l77 -983h-245z" />
<glyph unicode="&#xa2;" horiz-adv-x="958" d="M106 489q0 196 100 323t255 161v205h164v-201q95 -15 168.5 -76t107.5 -158l-143 -63q-21 102 -73 153.5t-126 51.5q-116 0 -175.5 -103.5t-59.5 -294.5q0 -209 60.5 -310t188.5 -101q155 0 242 172l62 -37q-36 -84 -101.5 -141.5t-150.5 -77.5v-228h-164v220 q-173 23 -264 153.5t-91 351.5z" />
<glyph unicode="&#xa3;" horiz-adv-x="1112" d="M127 0v92q74 50 124 100.5t85 127.5t35 167q0 35 -13 115h-190v92h166q-8 24 -39 99.5t-44 127.5t-13 111q0 170 111 265.5t284 95.5q116 0 200.5 -45.5t149.5 -141.5l-106 -110q-18 42 -37.5 73t-48 61.5t-67 47t-85.5 16.5q-86 0 -144.5 -58t-58.5 -181 q0 -62 15 -117.5t52.5 -139t45.5 -104.5h270v-92h-244q9 -61 9 -84q0 -146 -88 -254t-224 -172h723v-92h-868z" />
<glyph unicode="&#xa4;" horiz-adv-x="1275" d="M197 98l127 183q-115 127 -115 358q0 224 106 348l-118 170l135 94l117 -168q78 37 184 37q105 0 186 -37l117 168l135 -94l-121 -172q109 -125 109 -346q0 -230 -117 -356l129 -185l-135 -94l-129 184q-79 -30 -174 -30q-97 0 -174 30l-127 -184zM420 639 q0 -177 56 -273t157 -96q104 0 158.5 94.5t54.5 274.5q0 178 -55.5 273.5t-157.5 95.5t-157.5 -96.5t-55.5 -272.5z" />
<glyph unicode="&#xa5;" horiz-adv-x="1226" d="M88 1393h227l373 -746l369 746h102l-387 -760h205v-92h-254v-135h254v-93h-254v-313h-209v313h-264v93h264v135h-264v92h217z" />
<glyph unicode="&#xa6;" horiz-adv-x="634" d="M215 430h205v-860h-205v860zM215 635v860h205v-860h-205z" />
<glyph unicode="&#xa7;" horiz-adv-x="907" d="M72 57l135 66q24 -92 82.5 -147.5t138.5 -55.5q74 0 119 41.5t45 101.5q0 18 -3.5 33t-7 27.5t-15 25.5t-18.5 21t-27.5 21t-31 19.5t-40.5 20.5t-44 20.5t-53 24.5q-139 62 -203.5 138.5t-64.5 183.5q0 82 45.5 155.5t126.5 120.5q-127 85 -127 224q0 129 100.5 212 t251.5 83q123 0 220.5 -62.5t134.5 -173.5l-138 -65q-24 92 -82.5 147t-138.5 55q-73 0 -117.5 -41t-44.5 -102q0 -26 5 -46t20 -38.5t30 -31.5t47.5 -30.5t58.5 -30t77 -34.5q140 -62 205 -139t65 -183q0 -83 -46 -156t-128 -120q65 -45 97 -98t32 -127q0 -129 -101.5 -211 t-252.5 -82q-123 0 -219 61t-133 172zM258 659q0 -76 58 -129.5t192 -111.5q37 -18 49 -23q90 55 90 166q0 73 -57.5 126t-190.5 112q-29 11 -45 20q-96 -58 -96 -160z" />
<glyph unicode="&#xa8;" horiz-adv-x="1024" d="M209 1346q0 49 34.5 83.5t84.5 34.5t84 -34t34 -84t-34.5 -84.5t-83.5 -34.5q-50 0 -84.5 34.5t-34.5 84.5zM578 1346q0 50 34 84t84 34t84.5 -34.5t34.5 -83.5q0 -50 -34.5 -84.5t-84.5 -34.5q-49 0 -83.5 34.5t-34.5 84.5z" />
<glyph unicode="&#xa9;" horiz-adv-x="1523" d="M80 696q0 163 52 298.5t143.5 227t216.5 141.5t270 50q144 0 269 -50.5t216.5 -141.5t144 -227t52.5 -298t-53 -297.5t-144.5 -226.5t-216.5 -141.5t-268 -50.5t-268 50.5t-216.5 141.5t-144.5 226.5t-53 297.5zM190 696q0 -140 44.5 -257t121.5 -196t182 -123t224 -44 q118 0 222.5 44t182 123.5t122 196.5t44.5 256t-44.5 256t-121.5 196t-181.5 123t-223.5 44q-120 0 -225 -44t-182 -123t-121 -196t-44 -256zM395 705q0 202 107 311.5t274 109.5q196 0 297 -157l-119 -72q-68 154 -176 154q-97 0 -153 -102.5t-56 -248.5q0 -150 61 -254 t165 -104q124 0 204 113l58 -43q-46 -66 -118.5 -107t-164.5 -41q-187 0 -283 115.5t-96 325.5z" />
<glyph unicode="&#xaa;" horiz-adv-x="841" d="M84 807q0 103 70.5 157.5t212.5 92.5l151 39v26q0 98 -33.5 153.5t-101.5 55.5q-56 0 -91.5 -35t-53.5 -114l-134 47q33 91 110.5 138.5t186.5 47.5q139 0 217 -68.5t78 -207.5v-295q0 -63 11 -98t43 -56l-70 -72q-69 9 -106.5 46.5t-51.5 109.5q-42 -73 -106.5 -114.5 t-139.5 -41.5q-84 0 -138 51t-54 138zM274 838q0 -54 25.5 -85.5t67.5 -31.5q43 0 86 36.5t65 84.5v190l-65 -18q-91 -26 -135 -69t-44 -107z" />
<glyph unicode="&#xab;" horiz-adv-x="1185" d="M102 479v103l465 385v-103l-272 -334l272 -333v-103zM565 479v103l465 385v-103l-272 -334l272 -333v-103z" />
<glyph unicode="&#xac;" horiz-adv-x="1320" d="M256 629v92h809v-373h-98v281h-711z" />
<glyph unicode="&#xad;" horiz-adv-x="886" />
<glyph unicode="&#xae;" horiz-adv-x="894" d="M76 1018q0 185 106 290t264 105q159 0 265 -105.5t106 -289.5q0 -123 -51.5 -214t-134.5 -136t-185 -45q-76 0 -143 26.5t-117.5 75.5t-80 124.5t-29.5 168.5zM147 1018q0 -160 85 -246t214 -86q128 0 213.5 86.5t85.5 245.5q0 158 -85 244t-214 86t-214 -85t-85 -245z M313 807v432h107q86 0 128 -35t42 -98q0 -87 -80 -125l27 -47q37 -65 77 -74l-24 -59q-43 0 -72 17t-51 65l-37 82h-29v-158h-88zM401 1006h13q40 0 62 27t22 69q0 40 -23.5 67t-62.5 27h-11v-190z" />
<glyph unicode="&#xaf;" horiz-adv-x="1024" d="M240 1262v110h542v-110h-542z" />
<glyph unicode="&#xb0;" horiz-adv-x="663" d="M43 1112q0 72 25 131t66 95t90 55.5t100 19.5q69 0 132 -32.5t106.5 -103t43.5 -165.5q0 -139 -86.5 -219t-195.5 -80q-51 0 -99.5 19t-90 54.5t-66.5 94.5t-25 131zM190 1112q0 -99 37 -151t97 -52q59 0 96 53.5t37 149.5q0 100 -37 152.5t-96 52.5q-58 0 -96 -54 t-38 -151z" />
<glyph unicode="&#xb1;" horiz-adv-x="1320" d="M256 63v93h809v-93h-809zM256 629v92h358v334h97v-334h354v-92h-354v-342h-97v342h-358z" />
<glyph unicode="&#xb2;" horiz-adv-x="784" d="M102 1221q87 192 287 192q123 0 194.5 -60.5t71.5 -156.5q0 -46 -12.5 -85.5t-50 -93t-80 -102.5t-127.5 -141l-63 -67h352v-72h-563v61l139 148q140 148 186.5 219t46.5 147q0 54 -28.5 88.5t-75.5 34.5q-96 0 -139 -178z" />
<glyph unicode="&#xb3;" horiz-adv-x="786" d="M109 1264q91 149 266 149q119 0 191.5 -55t72.5 -146q0 -122 -129 -182q154 -49 154 -180q0 -103 -82 -165t-209 -62q-171 0 -258 110l55 55q39 -44 77 -65t91 -21q67 0 109 37.5t42 102.5q0 141 -198 141v80q92 0 134 40.5t42 108.5q0 56 -28.5 88.5t-82.5 32.5 q-85 0 -135 -133z" />
<glyph unicode="&#xb4;" horiz-adv-x="1024" d="M307 1227q172 164 262 286l121 -118q-141 -119 -338 -217z" />
<glyph unicode="&#xb5;" horiz-adv-x="1157" d="M164 -430v1474h205v-729q0 -115 52 -169t142 -54q136 0 225 123v829h205v-1044h-141l-51 129q-48 -66 -127 -107.5t-170 -41.5q-70 0 -135 20v-430h-205z" />
<glyph unicode="&#xb6;" horiz-adv-x="1210" d="M133 1096q0 81 26.5 140t73.5 92.5t105 49t129 15.5h600v-95h-154v-1298h-98v1298h-141v-1298h-189v799h-18q-71 0 -129 15.5t-105 49t-73.5 92.5t-26.5 140z" />
<glyph unicode="&#xb7;" horiz-adv-x="1024" d="M152 725q0 50 33.5 84.5t82.5 34.5q50 0 84.5 -35t34.5 -84t-34.5 -83t-84.5 -34q-49 0 -82.5 33.5t-33.5 83.5z" />
<glyph unicode="&#xb8;" horiz-adv-x="1024" d="M348 -393l49 53q58 -61 138 -61q55 0 85.5 31t30.5 91q0 105 -119 105q-28 0 -65 -6l43 211h102l-26 -142q35 5 51 5q85 0 131.5 -44t46.5 -118q0 -102 -69 -158.5t-179 -56.5q-132 0 -219 90z" />
<glyph unicode="&#xb9;" horiz-adv-x="786" d="M127 1243l244 158h161v-694h140v-72h-486v72h185v591l-199 -124z" />
<glyph unicode="&#xba;" horiz-adv-x="892" d="M109 1024q0 187 97 289t243 102q164 0 250.5 -107.5t86.5 -297.5q0 -185 -98 -288.5t-244 -103.5q-163 0 -249 107.5t-86 298.5zM297 1020q0 -152 39.5 -235t109.5 -83q150 0 150 312q0 160 -38.5 238.5t-108.5 78.5q-77 0 -114.5 -75.5t-37.5 -235.5z" />
<glyph unicode="&#xbb;" horiz-adv-x="1185" d="M100 94v103l273 333l-273 334v103l465 -385v-103zM565 94v103l273 333l-273 334v103l465 -385v-103z" />
<glyph unicode="&#xbc;" horiz-adv-x="1845" d="M127 1243l244 158h161v-694h140v-72h-486v72h185v591l-199 -124zM561 57l727 1293l119 -68l-729 -1294zM1161 172v72l359 522h133v-522h98v-72h-98v-172h-154v172h-338zM1276 244h223v327z" />
<glyph unicode="&#xbd;" horiz-adv-x="1845" d="M127 1243l244 158h161v-694h140v-72h-486v72h185v591l-199 -124zM514 57l727 1293l119 -68l-729 -1294zM1161 586q87 192 287 192q123 0 194.5 -60.5t71.5 -156.5q0 -46 -12.5 -85.5t-50 -93t-80 -102.5t-127.5 -141l-64 -67h353v-72h-564v61l140 148q140 148 186.5 219 t46.5 147q0 54 -28.5 88.5t-75.5 34.5q-97 0 -140 -178z" />
<glyph unicode="&#xbe;" horiz-adv-x="1845" d="M109 1264q91 149 266 149q119 0 191.5 -55t72.5 -146q0 -122 -129 -182q154 -49 154 -180q0 -103 -82 -165t-209 -62q-171 0 -258 110l55 55q39 -44 77 -65t91 -21q67 0 109 37.5t42 102.5q0 141 -198 141v80q92 0 134 40.5t42 108.5q0 56 -28.5 88.5t-82.5 32.5 q-85 0 -135 -133zM545 57l727 1293l119 -68l-729 -1294zM1161 172v72l359 522h133v-522h98v-72h-98v-172h-154v172h-338zM1276 244h223v327z" />
<glyph unicode="&#xbf;" horiz-adv-x="1058" d="M135 -37q0 62 21 117t55 96.5t74.5 80.5t81.5 77t75 77.5t55 90.5t21 108v58h109v-64q0 -74 -20.5 -140t-51.5 -112.5t-67.5 -97t-67.5 -93.5t-51.5 -100.5t-20.5 -119.5q0 -99 47.5 -149t124.5 -50q182 0 242 266l170 -49q-44 -138 -149.5 -226.5t-274.5 -88.5 q-168 0 -270.5 87t-102.5 232zM438 938q0 52 37 89.5t90 37.5q51 0 88 -37.5t37 -89.5q0 -51 -37 -88t-88 -37q-52 0 -89.5 37t-37.5 88z" />
<glyph unicode="&#xc0;" horiz-adv-x="1163" d="M41 0l473 1393h123l479 -1393h-229l-125 383h-488l-127 -383h-106zM305 475h426l-211 649zM401 1763l121 119q102 -134 262 -287l-45 -49q-190 94 -338 217z" />
<glyph unicode="&#xc1;" horiz-adv-x="1163" d="M41 0l473 1393h123l479 -1393h-229l-125 383h-488l-127 -383h-106zM305 475h426l-211 649zM377 1595q169 162 262 287l121 -119q-141 -119 -338 -217z" />
<glyph unicode="&#xc2;" horiz-adv-x="1163" d="M41 0l473 1393h123l479 -1393h-229l-125 383h-488l-127 -383h-106zM283 1597q157 154 254 283h90q97 -129 254 -283l-45 -51q-134 79 -254 166q-105 -76 -254 -166zM305 475h426l-211 649z" />
<glyph unicode="&#xc3;" horiz-adv-x="1163" d="M41 0l473 1393h123l479 -1393h-229l-125 383h-488l-127 -383h-106zM266 1630q75 168 199 168q56 0 131 -38t129 -38q66 0 106 68l62 -33q-66 -182 -182 -182q-50 0 -92.5 19.5t-82.5 39t-83 19.5q-76 0 -129 -60zM305 475h426l-211 649z" />
<glyph unicode="&#xc4;" horiz-adv-x="1163" d="M41 0l473 1393h123l479 -1393h-229l-125 383h-488l-127 -383h-106zM279 1714q0 50 34.5 84.5t83.5 34.5t84 -34.5t35 -84.5t-35 -84.5t-84 -34.5t-83.5 34.5t-34.5 84.5zM305 475h426l-211 649zM647 1714q0 50 34.5 84.5t84.5 34.5t84.5 -34.5t34.5 -84.5t-34.5 -84.5 t-84.5 -34.5t-84.5 34.5t-34.5 84.5z" />
<glyph unicode="&#xc5;" horiz-adv-x="1163" d="M41 0l473 1393h123l479 -1393h-229l-125 383h-488l-127 -383h-106zM305 475h426l-211 649zM348 1733q0 95 68.5 163t163.5 68q94 0 161.5 -68t67.5 -163q0 -94 -67.5 -162t-161.5 -68q-95 0 -163.5 68t-68.5 162zM481 1733q0 -68 27 -107t72 -39q43 0 69.5 39t26.5 107 q0 66 -26.5 106.5t-69.5 40.5q-44 0 -71.5 -40.5t-27.5 -106.5z" />
<glyph unicode="&#xc6;" horiz-adv-x="1689" d="M31 0l774 1393h772v-93h-561v-532h418v-92h-418v-584h561v-92h-772v383h-449l-211 -383h-114zM408 475h397v719z" />
<glyph unicode="&#xc7;" horiz-adv-x="1183" d="M113 711q0 166 43.5 300t119 221.5t177.5 134t221 46.5q155 0 253.5 -65t170.5 -189l-156 -92q-48 115 -110 181.5t-154 66.5q-107 0 -186.5 -84t-118.5 -220.5t-39 -305.5q0 -175 42 -316t126.5 -226t197.5 -85q98 0 179 50.5t137 133.5l74 -57q-154 -222 -410 -225 l-14 -91q30 5 49 5q85 0 131.5 -44t46.5 -118q0 -103 -68 -159t-178 -56q-134 0 -221 90l51 53q58 -61 135 -61q55 0 86 31t31 91q0 105 -117 105q-26 0 -67 -6l33 168q-228 33 -346.5 222t-118.5 501z" />
<glyph unicode="&#xc8;" horiz-adv-x="1067" d="M184 0v1393h770v-93h-561v-532h418v-92h-418v-584h561v-92h-770zM375 1763l121 119q102 -134 262 -287l-45 -49q-190 94 -338 217z" />
<glyph unicode="&#xc9;" horiz-adv-x="1067" d="M184 0v1393h770v-93h-561v-532h418v-92h-418v-584h561v-92h-770zM381 1595q169 162 262 287l121 -119q-141 -119 -338 -217z" />
<glyph unicode="&#xca;" horiz-adv-x="1067" d="M184 0v1393h770v-93h-561v-532h418v-92h-418v-584h561v-92h-770zM256 1597q157 154 254 283h90q97 -129 254 -283l-45 -51q-134 79 -254 166q-105 -76 -254 -166z" />
<glyph unicode="&#xcb;" horiz-adv-x="1067" d="M184 0v1393h770v-93h-561v-532h418v-92h-418v-584h561v-92h-770zM266 1714q0 50 35 84.5t84 34.5t84 -34.5t35 -84.5t-35 -84.5t-84 -34.5t-84 34.5t-35 84.5zM635 1714q0 50 34.5 84.5t84.5 34.5q49 0 83.5 -34.5t34.5 -84.5t-34.5 -84.5t-83.5 -34.5q-50 0 -84.5 34.5 t-34.5 84.5z" />
<glyph unicode="&#xcc;" horiz-adv-x="577" d="M109 1763l120 119q99 -130 263 -287l-46 -49q-188 93 -337 217zM184 0v1393h209v-1393h-209z" />
<glyph unicode="&#xcd;" horiz-adv-x="577" d="M84 1595q169 162 262 287l121 -119q-141 -119 -338 -217zM184 0v1393h209v-1393h-209z" />
<glyph unicode="&#xce;" horiz-adv-x="577" d="M-10 1597q157 154 254 283h90q97 -129 254 -283l-45 -51q-134 79 -254 166q-105 -76 -254 -166zM184 0v1393h209v-1393h-209z" />
<glyph unicode="&#xcf;" horiz-adv-x="577" d="M-14 1714q0 50 34.5 84.5t83.5 34.5q50 0 84.5 -34.5t34.5 -84.5t-34.5 -84.5t-84.5 -34.5q-49 0 -83.5 34.5t-34.5 84.5zM184 0v1393h209v-1393h-209zM354 1714q0 50 35 84.5t84 34.5t84 -34.5t35 -84.5t-35 -84.5t-84 -34.5t-84 34.5t-35 84.5z" />
<glyph unicode="&#xd0;" horiz-adv-x="1304" d="M61 649v92h123v652h322q327 0 506.5 -172t179.5 -504q0 -354 -188.5 -535.5t-540.5 -181.5h-279v649h-123zM393 92h74q241 0 372.5 162t131.5 453q0 278 -127 435.5t-363 157.5h-88v-559h228v-92h-228v-557z" />
<glyph unicode="&#xd1;" horiz-adv-x="1302" d="M184 0v1393h103l714 -1055v1055h117v-1393h-114l-699 1010v-1010h-121zM340 1630q75 168 199 168q56 0 131 -38t129 -38q66 0 106 68l62 -33q-66 -182 -183 -182q-50 0 -92.5 19.5t-82.5 39t-83 19.5q-76 0 -129 -60z" />
<glyph unicode="&#xd2;" horiz-adv-x="1349" d="M113 711q0 171 42 305.5t117.5 220.5t178.5 131t227 45q140 0 247.5 -52t175.5 -149t102 -230t34 -300q0 -171 -42 -305.5t-118 -220.5t-179 -131t-228 -45q-276 0 -416.5 195t-140.5 536zM334 705q0 -307 89.5 -467t248.5 -160q167 0 255.5 154t88.5 456 q0 306 -90 466.5t-250 160.5q-342 0 -342 -610zM494 1763l120 119q99 -130 263 -287l-46 -49q-188 93 -337 217z" />
<glyph unicode="&#xd3;" horiz-adv-x="1349" d="M113 711q0 171 42 305.5t117.5 220.5t178.5 131t227 45q140 0 247.5 -52t175.5 -149t102 -230t34 -300q0 -171 -42 -305.5t-118 -220.5t-179 -131t-228 -45q-276 0 -416.5 195t-140.5 536zM334 705q0 -307 89.5 -467t248.5 -160q167 0 255.5 154t88.5 456 q0 306 -90 466.5t-250 160.5q-342 0 -342 -610zM469 1595q169 162 262 287l121 -119q-141 -119 -338 -217z" />
<glyph unicode="&#xd4;" horiz-adv-x="1349" d="M113 711q0 171 42 305.5t117.5 220.5t178.5 131t227 45q140 0 247.5 -52t175.5 -149t102 -230t34 -300q0 -171 -42 -305.5t-118 -220.5t-179 -131t-228 -45q-276 0 -416.5 195t-140.5 536zM334 705q0 -307 89.5 -467t248.5 -160q167 0 255.5 154t88.5 456 q0 306 -90 466.5t-250 160.5q-342 0 -342 -610zM375 1597q157 154 254 283h90q97 -129 254 -283l-45 -51q-134 79 -254 166q-105 -76 -254 -166z" />
<glyph unicode="&#xd5;" horiz-adv-x="1349" d="M113 711q0 171 42 305.5t117.5 220.5t178.5 131t227 45q140 0 247.5 -52t175.5 -149t102 -230t34 -300q0 -171 -42 -305.5t-118 -220.5t-179 -131t-228 -45q-276 0 -416.5 195t-140.5 536zM334 705q0 -307 89.5 -467t248.5 -160q167 0 255.5 154t88.5 456 q0 306 -90 466.5t-250 160.5q-342 0 -342 -610zM358 1630q75 168 199 168q56 0 131 -38t129 -38q67 0 107 68l61 -33q-66 -182 -182 -182q-50 0 -92.5 19.5t-82.5 39t-83 19.5q-76 0 -129 -60z" />
<glyph unicode="&#xd6;" horiz-adv-x="1349" d="M113 711q0 171 42 305.5t117.5 220.5t178.5 131t227 45q140 0 247.5 -52t175.5 -149t102 -230t34 -300q0 -171 -42 -305.5t-118 -220.5t-179 -131t-228 -45q-276 0 -416.5 195t-140.5 536zM334 705q0 -307 89.5 -467t248.5 -160q167 0 255.5 154t88.5 456 q0 306 -90 466.5t-250 160.5q-342 0 -342 -610zM371 1714q0 50 34.5 84.5t83.5 34.5t84 -34.5t35 -84.5t-35 -84.5t-84 -34.5t-83.5 34.5t-34.5 84.5zM739 1714q0 50 34.5 84.5t84.5 34.5t84.5 -34.5t34.5 -84.5t-34.5 -84.5t-84.5 -34.5t-84.5 34.5t-34.5 84.5z" />
<glyph unicode="&#xd7;" horiz-adv-x="1320" d="M326 938l69 70l262 -265l252 250l66 -65l-252 -250l272 -272l-69 -68l-273 270l-252 -252l-65 66l252 252z" />
<glyph unicode="&#xd8;" horiz-adv-x="1349" d="M113 711q0 171 42 305.5t117.5 220.5t178.5 131t227 45q208 0 342 -115l63 95h107l-107 -160q154 -188 154 -551q0 -171 -42 -305.5t-118 -220.5t-179 -131t-228 -45q-206 0 -340 112l-62 -92h-106l104 158q-153 187 -153 553zM334 705q0 -228 49 -371l543 821 q-89 160 -250 160q-342 0 -342 -610zM424 236q85 -158 248 -158q167 0 255.5 154t88.5 456q0 226 -49 369z" />
<glyph unicode="&#xd9;" horiz-adv-x="1277" d="M178 502v891h211v-899q0 -207 78 -311.5t217 -104.5q144 0 227.5 102t83.5 318v895h109v-893q0 -256 -120 -388t-329 -132q-477 0 -477 522zM475 1763l121 119q102 -134 262 -287l-45 -49q-190 94 -338 217z" />
<glyph unicode="&#xda;" horiz-adv-x="1277" d="M178 502v891h211v-899q0 -207 78 -311.5t217 -104.5q144 0 227.5 102t83.5 318v895h109v-893q0 -256 -120 -388t-329 -132q-477 0 -477 522zM485 1595q173 165 263 287l120 -119q-141 -119 -338 -217z" />
<glyph unicode="&#xdb;" horiz-adv-x="1277" d="M178 502v891h211v-899q0 -207 78 -311.5t217 -104.5q144 0 227.5 102t83.5 318v895h109v-893q0 -256 -120 -388t-329 -132q-477 0 -477 522zM367 1597q157 154 254 283h90q97 -129 254 -283l-45 -51q-134 79 -254 166q-105 -76 -254 -166z" />
<glyph unicode="&#xdc;" horiz-adv-x="1277" d="M178 502v891h211v-899q0 -207 78 -311.5t217 -104.5q144 0 227.5 102t83.5 318v895h109v-893q0 -256 -120 -388t-329 -132q-477 0 -477 522zM358 1714q0 50 35 84.5t84 34.5t84 -34.5t35 -84.5t-35 -84.5t-84 -34.5t-84 34.5t-35 84.5zM727 1714q0 50 34.5 84.5 t84.5 34.5t84.5 -34.5t34.5 -84.5t-34.5 -84.5t-84.5 -34.5t-84.5 34.5t-34.5 84.5z" />
<glyph unicode="&#xdd;" horiz-adv-x="1138" d="M35 1393h229l371 -746l369 746h104l-436 -856v-537h-211v541zM414 1595q169 162 262 287l121 -119q-141 -119 -338 -217z" />
<glyph unicode="&#xde;" horiz-adv-x="1153" d="M184 0v1393h209v-242h101q290 0 426.5 -114.5t136.5 -321.5q0 -230 -156 -352.5t-444 -122.5h-64v-240h-209zM393 332h70q182 0 279.5 100t97.5 270q0 172 -95.5 264.5t-281.5 92.5h-70v-727z" />
<glyph unicode="&#xdf;" horiz-adv-x="1218" d="M164 0v1020q0 104 26.5 192.5t79 157t138.5 107.5t196 39q88 0 157 -24t108 -63.5t59 -84t20 -91.5q0 -45 -10.5 -82t-36 -72t-44.5 -55t-58 -57q-69 -66 -91 -96.5t-22 -67.5q0 -12 2.5 -24t9.5 -23.5t13.5 -21t20 -21.5t22 -19.5t27.5 -21t29 -20.5t33 -22.5t34 -22.5 l65 -43q107 -70 154 -132.5t47 -162.5q0 -60 -21 -113.5t-63.5 -98t-114.5 -71t-166 -26.5q-182 0 -291 131l66 65q86 -100 197 -100q90 0 137 50.5t47 127.5q0 65 -34 112.5t-120 102.5l-71 45q-187 121 -187 225q0 54 27.5 95.5t101.5 119.5q62 65 82.5 118.5t20.5 135.5 q0 97 -45 153t-121 56q-106 0 -162.5 -97.5t-56.5 -277.5v-1042h-205z" />
<glyph unicode="&#xe0;" d="M96 236q0 58 18.5 105t49 80.5t81.5 62t103 48t127 41.5l209 60v37q0 138 -47 217.5t-148 79.5q-82 0 -133 -47.5t-80 -157.5l-151 55q47 121 147 184.5t236 63.5q181 0 281 -94t100 -281v-426q0 -82 13.5 -128.5t53.5 -72.5l-79 -83q-85 15 -127.5 67.5t-57.5 157.5 q-133 -225 -340 -225q-112 0 -184 68.5t-72 187.5zM311 268q0 -81 36.5 -127.5t98.5 -46.5q135 0 238 201v262l-111 -33q-140 -42 -201 -103t-61 -153zM346 1395l121 118q99 -130 262 -286l-45 -49q-190 94 -338 217z" />
<glyph unicode="&#xe1;" d="M96 236q0 58 18.5 105t49 80.5t81.5 62t103 48t127 41.5l209 60v37q0 138 -47 217.5t-148 79.5q-82 0 -133 -47.5t-80 -157.5l-151 55q47 121 147 184.5t236 63.5q181 0 281 -94t100 -281v-426q0 -82 13.5 -128.5t53.5 -72.5l-79 -83q-85 15 -127.5 67.5t-57.5 157.5 q-133 -225 -340 -225q-112 0 -184 68.5t-72 187.5zM311 268q0 -81 36.5 -127.5t98.5 -46.5q135 0 238 201v262l-111 -33q-140 -42 -201 -103t-61 -153zM322 1227q172 164 262 286l121 -118q-141 -119 -338 -217z" />
<glyph unicode="&#xe2;" d="M96 236q0 58 18.5 105t49 80.5t81.5 62t103 48t127 41.5l209 60v37q0 138 -47 217.5t-148 79.5q-82 0 -133 -47.5t-80 -157.5l-151 55q47 121 147 184.5t236 63.5q181 0 281 -94t100 -281v-426q0 -82 13.5 -128.5t53.5 -72.5l-79 -83q-85 15 -127.5 67.5t-57.5 157.5 q-133 -225 -340 -225q-112 0 -184 68.5t-72 187.5zM227 1229q160 156 254 282h90q94 -126 254 -282l-45 -51q-142 83 -254 165q-97 -70 -254 -165zM311 268q0 -81 36.5 -127.5t98.5 -46.5q135 0 238 201v262l-111 -33q-140 -42 -201 -103t-61 -153z" />
<glyph unicode="&#xe3;" d="M96 236q0 58 18.5 105t49 80.5t81.5 62t103 48t127 41.5l209 60v37q0 138 -47 217.5t-148 79.5q-82 0 -133 -47.5t-80 -157.5l-151 55q47 121 147 184.5t236 63.5q181 0 281 -94t100 -281v-426q0 -82 13.5 -128.5t53.5 -72.5l-79 -83q-85 15 -127.5 67.5t-57.5 157.5 q-133 -225 -340 -225q-112 0 -184 68.5t-72 187.5zM211 1262q75 168 199 168q56 0 131 -38t129 -38q67 0 106 67l62 -32q-66 -183 -183 -183q-50 0 -92.5 19.5t-82.5 39t-83 19.5q-77 0 -129 -59zM311 268q0 -81 36.5 -127.5t98.5 -46.5q135 0 238 201v262l-111 -33 q-140 -42 -201 -103t-61 -153z" />
<glyph unicode="&#xe4;" d="M96 236q0 58 18.5 105t49 80.5t81.5 62t103 48t127 41.5l209 60v37q0 138 -47 217.5t-148 79.5q-82 0 -133 -47.5t-80 -157.5l-151 55q47 121 147 184.5t236 63.5q181 0 281 -94t100 -281v-426q0 -82 13.5 -128.5t53.5 -72.5l-79 -83q-85 15 -127.5 67.5t-57.5 157.5 q-133 -225 -340 -225q-112 0 -184 68.5t-72 187.5zM223 1346q0 49 34.5 83.5t84.5 34.5t84.5 -34.5t34.5 -83.5q0 -50 -34.5 -84.5t-84.5 -34.5t-84.5 34.5t-34.5 84.5zM311 268q0 -81 36.5 -127.5t98.5 -46.5q135 0 238 201v262l-111 -33q-140 -42 -201 -103t-61 -153z M592 1346q0 49 34.5 83.5t84.5 34.5q49 0 83.5 -34t34.5 -84t-34.5 -84.5t-83.5 -34.5t-84 34.5t-35 84.5z" />
<glyph unicode="&#xe5;" d="M96 236q0 58 18.5 105t49 80.5t81.5 62t103 48t127 41.5l209 60v37q0 138 -47 217.5t-148 79.5q-82 0 -133 -47.5t-80 -157.5l-151 55q47 121 147 184.5t236 63.5q181 0 281 -94t100 -281v-426q0 -82 13.5 -128.5t53.5 -72.5l-79 -83q-85 15 -127.5 67.5t-57.5 157.5 q-133 -225 -340 -225q-112 0 -184 68.5t-72 187.5zM293 1364q0 95 68 163t163 68q94 0 162 -68t68 -163q0 -94 -68 -161.5t-162 -67.5q-95 0 -163 67.5t-68 161.5zM311 268q0 -81 36.5 -127.5t98.5 -46.5q135 0 238 201v262l-111 -33q-140 -42 -201 -103t-61 -153zM426 1364 q0 -68 26.5 -106.5t71.5 -38.5q44 0 70.5 38.5t26.5 106.5q0 66 -27 106.5t-70 40.5q-44 0 -71 -40.5t-27 -106.5z" />
<glyph unicode="&#xe6;" horiz-adv-x="1628" d="M96 236q0 58 18.5 105t49 80.5t81.5 62t103 48t127 41.5l209 60q0 13 4 33q0 136 -49.5 218.5t-149.5 82.5q-82 0 -133 -47.5t-80 -157.5l-151 55q47 121 147 184.5t236 63.5q216 0 301 -135q126 135 313 135q216 0 318 -150.5t78 -396.5h-631q1 -227 71 -334.5 t209 -107.5q77 0 147 40t120 124l59 -39q-52 -103 -144 -162t-206 -59q-314 0 -418 264q-156 -264 -373 -264q-112 0 -184 68.5t-72 187.5zM311 268q0 -81 36.5 -127.5t98.5 -46.5q73 0 138.5 61t117.5 156q-24 99 -24 221v23l-105 -31q-140 -42 -201 -103t-61 -153z M887 598h434q-1 74 -12 137.5t-33.5 117t-63 84t-94.5 30.5q-101 0 -161 -92t-70 -277z" />
<glyph unicode="&#xe7;" horiz-adv-x="952" d="M104 530q0 135 34.5 239t96.5 167.5t143 96t177 32.5q117 0 209.5 -62t132.5 -178l-141 -63q-21 102 -73 153.5t-126 51.5q-117 0 -176 -113.5t-59 -325.5q0 -229 60.5 -340.5t188.5 -111.5q156 0 240 172l61 -37q-92 -215 -311 -229l-16 -93q35 5 51 5q85 0 131.5 -44 t46.5 -118q0 -102 -69 -158.5t-179 -56.5q-132 0 -219 90l49 53q58 -61 138 -61q55 0 85.5 31t30.5 91q0 105 -118 105q-29 0 -66 -6l33 164q-355 45 -355 546z" />
<glyph unicode="&#xe8;" d="M104 532q0 133 37.5 237.5t101 167.5t141.5 95.5t165 32.5q216 0 317.5 -150.5t77.5 -396.5h-631q1 -227 71.5 -334.5t209.5 -107.5q77 0 146.5 40t119.5 124l60 -39q-52 -103 -144.5 -162t-206.5 -59q-235 0 -350 145t-115 407zM313 598h435q-1 74 -12 137.5t-33.5 117 t-63 84t-94.5 30.5q-101 0 -161.5 -92t-70.5 -277zM360 1395l121 118q99 -130 262 -286l-45 -49q-190 94 -338 217z" />
<glyph unicode="&#xe9;" d="M104 532q0 133 37.5 237.5t101 167.5t141.5 95.5t165 32.5q216 0 317.5 -150.5t77.5 -396.5h-631q1 -227 71.5 -334.5t209.5 -107.5q77 0 146.5 40t119.5 124l60 -39q-52 -103 -144.5 -162t-206.5 -59q-235 0 -350 145t-115 407zM313 598h435q-1 74 -12 137.5t-33.5 117 t-63 84t-94.5 30.5q-101 0 -161.5 -92t-70.5 -277zM350 1227q172 164 262 286l121 -118q-141 -119 -338 -217z" />
<glyph unicode="&#xea;" d="M104 532q0 133 37.5 237.5t101 167.5t141.5 95.5t165 32.5q216 0 317.5 -150.5t77.5 -396.5h-631q1 -227 71.5 -334.5t209.5 -107.5q77 0 146.5 40t119.5 124l60 -39q-52 -103 -144.5 -162t-206.5 -59q-235 0 -350 145t-115 407zM246 1229q160 156 254 282h90 q94 -126 254 -282l-45 -51q-142 83 -254 165q-97 -70 -254 -165zM313 598h435q-1 74 -12 137.5t-33.5 117t-63 84t-94.5 30.5q-101 0 -161.5 -92t-70.5 -277z" />
<glyph unicode="&#xeb;" d="M104 532q0 133 37.5 237.5t101 167.5t141.5 95.5t165 32.5q216 0 317.5 -150.5t77.5 -396.5h-631q1 -227 71.5 -334.5t209.5 -107.5q77 0 146.5 40t119.5 124l60 -39q-52 -103 -144.5 -162t-206.5 -59q-235 0 -350 145t-115 407zM240 1346q0 50 34 84t84 34t84.5 -34.5 t34.5 -83.5q0 -50 -34.5 -84.5t-84.5 -34.5q-49 0 -83.5 34.5t-34.5 84.5zM313 598h435q-1 74 -12 137.5t-33.5 117t-63 84t-94.5 30.5q-101 0 -161.5 -92t-70.5 -277zM608 1346q0 49 34.5 83.5t84.5 34.5t84.5 -34.5t34.5 -83.5q0 -50 -35 -84.5t-84 -34.5t-84 34.5 t-35 84.5z" />
<glyph unicode="&#xec;" horiz-adv-x="587" d="M76 954v90h338v-1044h-205v954h-133zM115 1395l121 118q99 -130 262 -286l-45 -49q-190 94 -338 217z" />
<glyph unicode="&#xed;" horiz-adv-x="587" d="M76 954v90h338v-1044h-205v954h-133zM90 1227q172 164 262 286l121 -118q-141 -119 -338 -217z" />
<glyph unicode="&#xee;" horiz-adv-x="587" d="M-4 1229q160 156 254 282h90q94 -126 254 -282l-45 -51q-142 83 -254 165q-97 -70 -254 -165zM76 954v90h338v-1044h-205v954h-133z" />
<glyph unicode="&#xef;" horiz-adv-x="587" d="M-8 1346q0 49 34.5 83.5t84.5 34.5q49 0 83.5 -34t34.5 -84t-34.5 -84.5t-83.5 -34.5t-84 34.5t-35 84.5zM76 954v90h338v-1044h-205v954h-133zM360 1346q0 49 34.5 83.5t84.5 34.5t84.5 -34.5t34.5 -83.5q0 -50 -35 -84.5t-84 -34.5t-84 34.5t-35 84.5z" />
<glyph unicode="&#xf0;" horiz-adv-x="1087" d="M104 532q0 129 35.5 232t96 168t138 99t165.5 34q143 0 241 -109q-56 183 -170 306l-100 -103l-45 43l104 103q-74 77 -172 118l35 60q105 -31 209 -103l82 84l47 -45l-78 -76q134 -121 213.5 -311.5t79.5 -408.5q0 -166 -35.5 -292.5t-98 -201.5t-140.5 -112t-170 -37 q-211 0 -324 146.5t-113 405.5zM315 526q0 -216 61.5 -333t166.5 -117q229 0 229 452q0 217 -60 328t-167 111q-230 0 -230 -441z" />
<glyph unicode="&#xf1;" horiz-adv-x="1177" d="M174 0v1044h141l50 -129q48 65 127.5 107.5t169.5 42.5q165 0 253.5 -93t88.5 -261v-439q0 -86 13 -134t54 -77l-82 -81q-92 19 -141 79t-49 187v469q0 121 -52.5 179t-144.5 58q-134 0 -223 -123v-829h-205zM272 1262q75 168 199 168q56 0 131 -38t129 -38q68 0 107 67 l61 -32q-66 -183 -182 -183q-50 0 -92.5 19.5t-82.5 39t-83 19.5q-77 0 -129 -59z" />
<glyph unicode="&#xf2;" horiz-adv-x="1089" d="M104 532q0 129 35.5 232t96.5 168t140.5 99t170.5 34q212 0 325 -147t113 -406q0 -128 -35.5 -231t-97 -167.5t-141.5 -99t-170 -34.5q-211 0 -324 145.5t-113 406.5zM315 526q0 -216 61.5 -333t166.5 -117q114 0 171.5 113t57.5 329q0 223 -60 336t-167 113 q-230 0 -230 -441zM362 1395l121 118q99 -130 262 -286l-45 -49q-190 94 -338 217z" />
<glyph unicode="&#xf3;" horiz-adv-x="1089" d="M104 532q0 129 35.5 232t96.5 168t140.5 99t170.5 34q212 0 325 -147t113 -406q0 -128 -35.5 -231t-97 -167.5t-141.5 -99t-170 -34.5q-211 0 -324 145.5t-113 406.5zM315 526q0 -216 61.5 -333t166.5 -117q114 0 171.5 113t57.5 329q0 223 -60 336t-167 113 q-230 0 -230 -441zM338 1227q172 164 262 286l121 -118q-141 -119 -338 -217z" />
<glyph unicode="&#xf4;" horiz-adv-x="1089" d="M104 532q0 129 35.5 232t96.5 168t140.5 99t170.5 34q212 0 325 -147t113 -406q0 -128 -35.5 -231t-97 -167.5t-141.5 -99t-170 -34.5q-211 0 -324 145.5t-113 406.5zM244 1229q160 156 254 282h90q94 -126 254 -282l-45 -51q-142 83 -254 165q-97 -70 -254 -165z M315 526q0 -216 61.5 -333t166.5 -117q114 0 171.5 113t57.5 329q0 223 -60 336t-167 113q-230 0 -230 -441z" />
<glyph unicode="&#xf5;" horiz-adv-x="1089" d="M104 532q0 129 35.5 232t96.5 168t140.5 99t170.5 34q212 0 325 -147t113 -406q0 -128 -35.5 -231t-97 -167.5t-141.5 -99t-170 -34.5q-211 0 -324 145.5t-113 406.5zM227 1262q75 168 199 168q56 0 131 -38t129 -38q68 0 107 67l61 -32q-66 -183 -182 -183 q-50 0 -92.5 19.5t-82.5 39t-83 19.5q-77 0 -129 -59zM315 526q0 -216 61.5 -333t166.5 -117q114 0 171.5 113t57.5 329q0 223 -60 336t-167 113q-230 0 -230 -441z" />
<glyph unicode="&#xf6;" horiz-adv-x="1089" d="M104 532q0 129 35.5 232t96.5 168t140.5 99t170.5 34q212 0 325 -147t113 -406q0 -128 -35.5 -231t-97 -167.5t-141.5 -99t-170 -34.5q-211 0 -324 145.5t-113 406.5zM240 1346q0 50 34 84t84 34t84.5 -34.5t34.5 -83.5q0 -50 -34.5 -84.5t-84.5 -34.5q-49 0 -83.5 34.5 t-34.5 84.5zM315 526q0 -216 61.5 -333t166.5 -117q114 0 171.5 113t57.5 329q0 223 -60 336t-167 113q-230 0 -230 -441zM608 1346q0 49 34.5 83.5t84.5 34.5t84.5 -34.5t34.5 -83.5q0 -50 -35 -84.5t-84 -34.5t-84 34.5t-35 84.5z" />
<glyph unicode="&#xf7;" horiz-adv-x="1320" d="M256 629v92h809v-92h-809zM551 330q0 43 32.5 75.5t75.5 32.5t75 -32.5t32 -75.5t-32 -75t-75 -32t-75.5 32t-32.5 75zM551 1020q0 43 32.5 75.5t75.5 32.5t75 -32.5t32 -75.5t-32 -75t-75 -32t-75.5 32t-32.5 75z" />
<glyph unicode="&#xf8;" horiz-adv-x="1089" d="M104 532q0 129 35.5 232t96.5 168t140.5 99t170.5 34q161 0 270 -92l51 71h90l-88 -124q115 -145 115 -408q0 -128 -35.5 -231t-97 -167.5t-141.5 -99t-170 -34.5q-163 0 -271 88l-47 -68h-90l86 123q-115 142 -115 409zM315 526q0 -130 25 -233l381 543 q-61 131 -176 131q-230 0 -230 -441zM369 207q62 -131 174 -131q114 0 171.5 113t57.5 329q0 134 -22 230z" />
<glyph unicode="&#xf9;" horiz-adv-x="1081" d="M158 387v657h204v-677q0 -291 209 -291q112 0 164.5 79.5t52.5 219.5v669h144v-663q0 -190 -102 -295.5t-283 -105.5q-389 0 -389 407zM369 1395l120 118q96 -127 263 -286l-45 -49q-190 94 -338 217z" />
<glyph unicode="&#xfa;" horiz-adv-x="1081" d="M158 387v657h204v-677q0 -291 209 -291q112 0 164.5 79.5t52.5 219.5v669h144v-663q0 -190 -102 -295.5t-283 -105.5q-389 0 -389 407zM360 1227q175 168 263 286l120 -118q-143 -121 -337 -217z" />
<glyph unicode="&#xfb;" horiz-adv-x="1081" d="M158 387v657h204v-677q0 -291 209 -291q112 0 164.5 79.5t52.5 219.5v669h144v-663q0 -190 -102 -295.5t-283 -105.5q-389 0 -389 407zM260 1229q160 156 254 282h90q94 -126 254 -282l-45 -51q-142 83 -254 165q-97 -70 -254 -165z" />
<glyph unicode="&#xfc;" horiz-adv-x="1081" d="M158 387v657h204v-677q0 -291 209 -291q112 0 164.5 79.5t52.5 219.5v669h144v-663q0 -190 -102 -295.5t-283 -105.5q-389 0 -389 407zM250 1346q0 49 34.5 83.5t84.5 34.5q49 0 83.5 -34t34.5 -84t-34.5 -84.5t-83.5 -34.5t-84 34.5t-35 84.5zM618 1346q0 49 34.5 83.5 t84.5 34.5t84.5 -34.5t34.5 -83.5q0 -50 -35 -84.5t-84 -34.5t-84 34.5t-35 84.5z" />
<glyph unicode="&#xfd;" horiz-adv-x="983" d="M20 954v90h283l252 -839l172 446q82 217 82 393h119q0 -113 -27 -208.5t-98 -270.5l-268 -655q-70 -173 -128.5 -254t-125.5 -107l-62 62q82 50 132.5 123.5t92.5 181.5l17 47l-350 991h-91zM348 1227q172 164 262 286l121 -118q-141 -119 -338 -217z" />
<glyph unicode="&#xfe;" horiz-adv-x="1128" d="M174 -430v1894l205 52v-543q92 92 239 92q189 0 297.5 -140.5t108.5 -396.5q0 -262 -123.5 -405t-351.5 -143q-82 0 -170 18v-428h-205zM379 150q32 -32 80 -53t102 -21q131 0 191.5 112.5t60.5 337.5q0 208 -61.5 322.5t-180.5 114.5q-112 0 -192 -97v-716z" />
<glyph unicode="&#xff;" horiz-adv-x="983" d="M20 954v90h283l252 -839l172 446q82 217 82 393h119q0 -113 -27 -208.5t-98 -270.5l-268 -655q-70 -173 -128.5 -254t-125.5 -107l-62 62q82 50 132.5 123.5t92.5 181.5l17 47l-350 991h-91zM229 1346q0 49 34.5 83.5t84.5 34.5t84.5 -34.5t34.5 -83.5q0 -50 -34.5 -84.5 t-84.5 -34.5t-84.5 34.5t-34.5 84.5zM598 1346q0 49 34.5 83.5t84.5 34.5t84.5 -34.5t34.5 -83.5q0 -50 -35 -84.5t-84 -34.5t-84 34.5t-35 84.5z" />
<glyph unicode="&#x152;" horiz-adv-x="1849" d="M113 711q0 339 148 520.5t392 181.5q182 0 312 -117v97h772v-93h-561v-532h417v-92h-417v-584h561v-92h-772v111q-134 -131 -320 -131q-134 0 -236.5 52t-167 149t-96.5 230t-32 300zM334 705q0 -309 82 -468t231 -159q318 0 318 610v31q-4 292 -86.5 444t-227.5 152 q-317 0 -317 -610z" />
<glyph unicode="&#x153;" horiz-adv-x="1724" d="M104 532q0 129 35.5 232t96.5 168t140.5 99t170.5 34q220 0 334 -164q63 81 151.5 122.5t186.5 41.5q216 0 317.5 -150.5t77.5 -396.5h-631q1 -227 71.5 -334.5t209.5 -107.5q77 0 146.5 40t119.5 124l59 -39q-52 -103 -144 -162t-206 -59q-246 0 -365 163 q-120 -163 -333 -163q-211 0 -324 145.5t-113 406.5zM315 526q0 -216 61.5 -333t166.5 -117q114 0 171.5 113t57.5 329q0 223 -60 336t-167 113q-230 0 -230 -441zM983 598h434q-1 74 -12 137.5t-33.5 117t-63 84t-94.5 30.5q-101 0 -161 -92t-70 -277z" />
<glyph unicode="&#x178;" horiz-adv-x="1138" d="M35 1393h229l371 -746l369 746h104l-436 -856v-537h-211v541zM305 1714q0 50 34.5 84.5t84.5 34.5t84.5 -34.5t34.5 -84.5t-34.5 -84.5t-84.5 -34.5t-84.5 34.5t-34.5 84.5zM674 1714q0 50 35 84.5t84 34.5t83.5 -34.5t34.5 -84.5t-34.5 -84.5t-83.5 -34.5t-84 34.5 t-35 84.5z" />
<glyph unicode="&#x2c6;" horiz-adv-x="1024" d="M213 1229q160 156 254 282h90q94 -126 254 -282l-45 -51q-142 83 -254 165q-97 -70 -254 -165z" />
<glyph unicode="&#x2dc;" horiz-adv-x="1024" d="M197 1262q75 168 198 168q56 0 131 -38t129 -38q68 0 107 67l61 -32q-66 -183 -182 -183q-50 0 -92.5 19.5t-82.5 39t-83 19.5q-77 0 -129 -59z" />
<glyph unicode="&#x2000;" horiz-adv-x="982" />
<glyph unicode="&#x2001;" horiz-adv-x="1964" />
<glyph unicode="&#x2002;" horiz-adv-x="982" />
<glyph unicode="&#x2003;" horiz-adv-x="1964" />
<glyph unicode="&#x2004;" horiz-adv-x="654" />
<glyph unicode="&#x2005;" horiz-adv-x="491" />
<glyph unicode="&#x2006;" horiz-adv-x="327" />
<glyph unicode="&#x2007;" horiz-adv-x="327" />
<glyph unicode="&#x2008;" horiz-adv-x="245" />
<glyph unicode="&#x2009;" horiz-adv-x="392" />
<glyph unicode="&#x200a;" horiz-adv-x="109" />
<glyph unicode="&#x2010;" horiz-adv-x="897" d="M174 514v102h549v-102h-549z" />
<glyph unicode="&#x2011;" horiz-adv-x="897" d="M174 514v102h549v-102h-549z" />
<glyph unicode="&#x2012;" horiz-adv-x="897" d="M174 514v102h549v-102h-549z" />
<glyph unicode="&#x2013;" horiz-adv-x="1024" d="M164 514v102h696v-102h-696z" />
<glyph unicode="&#x2014;" horiz-adv-x="2048" d="M164 514v102h1720v-102h-1720z" />
<glyph unicode="&#x2018;" horiz-adv-x="481" d="M115 1249q0 100 56 188.5t151 141.5l30 -37q-99 -86 -114 -217q24 6 36 6q46 0 70.5 -30.5t24.5 -79.5q0 -57 -36.5 -94t-90.5 -37q-64 0 -95.5 44.5t-31.5 114.5z" />
<glyph unicode="&#x2019;" horiz-adv-x="481" d="M123 1421q0 57 36.5 94t90.5 37q64 0 95.5 -45.5t31.5 -117.5q0 -93 -57 -183.5t-150 -142.5l-31 37q101 87 115 217q-24 -6 -37 -6q-46 0 -70 30.5t-24 79.5z" />
<glyph unicode="&#x201a;" horiz-adv-x="481" d="M123 106q0 59 36.5 96.5t90.5 37.5q64 0 95.5 -46.5t31.5 -119.5q0 -93 -57 -182.5t-150 -141.5l-31 35q100 87 115 219q-12 -6 -37 -6q-46 0 -70 29.5t-24 78.5z" />
<glyph unicode="&#x201c;" horiz-adv-x="833" d="M115 1249q0 100 56 188.5t151 141.5l30 -37q-99 -86 -114 -217q24 6 36 6q46 0 70.5 -30.5t24.5 -79.5q0 -57 -36.5 -94t-90.5 -37q-64 0 -95.5 44.5t-31.5 114.5zM465 1249q0 100 56 188.5t151 141.5l30 -37q-99 -86 -114 -217q24 6 37 6q46 0 70 -30.5t24 -79.5 q0 -57 -36.5 -94t-90.5 -37q-64 0 -95.5 44.5t-31.5 114.5z" />
<glyph unicode="&#x201d;" horiz-adv-x="833" d="M123 1421q0 57 36.5 94t90.5 37q64 0 95.5 -45.5t31.5 -117.5q0 -93 -57 -183.5t-150 -142.5l-31 37q101 87 115 217q-24 -6 -37 -6q-46 0 -70 30.5t-24 79.5zM473 1421q0 57 36.5 94t90.5 37q64 0 95.5 -45.5t31.5 -117.5q0 -93 -57 -183.5t-150 -142.5l-31 37 q101 87 115 217q-24 -6 -37 -6q-46 0 -70 30.5t-24 79.5z" />
<glyph unicode="&#x201e;" horiz-adv-x="833" d="M123 106q0 59 36.5 96.5t90.5 37.5q64 0 95.5 -46.5t31.5 -119.5q0 -93 -57 -182.5t-150 -141.5l-31 35q100 87 115 219q-12 -6 -37 -6q-46 0 -70 29.5t-24 78.5zM473 106q0 59 36.5 96.5t90.5 37.5q64 0 95.5 -46.5t31.5 -119.5q0 -93 -57 -182.5t-150 -141.5l-31 35 q100 87 115 219q-12 -6 -37 -6q-46 0 -70 29.5t-24 78.5z" />
<glyph unicode="&#x2022;" horiz-adv-x="837" d="M184 766q0 88 62.5 150.5t150.5 62.5t151.5 -62.5t63.5 -150.5q0 -89 -63.5 -152t-151.5 -63t-150.5 63t-62.5 152z" />
<glyph unicode="&#x2026;" horiz-adv-x="1662" d="M141 117q0 52 37 89.5t88 37.5q52 0 89.5 -37t37.5 -90q0 -51 -37.5 -88t-89.5 -37q-51 0 -88 37t-37 88zM707 117q0 52 36.5 89.5t87.5 37.5q53 0 90 -37t37 -90q0 -51 -37.5 -88t-89.5 -37q-51 0 -87.5 37t-36.5 88zM1270 117q0 52 37 89.5t88 37.5q53 0 90 -37t37 -90 q0 -51 -37.5 -88t-89.5 -37q-51 0 -88 37t-37 88z" />
<glyph unicode="&#x202f;" horiz-adv-x="392" />
<glyph unicode="&#x2039;" horiz-adv-x="720" d="M102 479v103l465 385v-103l-272 -334l272 -333v-103z" />
<glyph unicode="&#x203a;" horiz-adv-x="720" d="M154 94v103l272 333l-272 334v103l464 -385v-103z" />
<glyph unicode="&#x205f;" horiz-adv-x="491" />
<glyph unicode="&#x20ac;" horiz-adv-x="1335" d="M82 487l18 93h142q-6 61 -6 131v53h-144l19 92h133q23 180 103 307t199.5 188.5t268.5 61.5q148 0 243.5 -56t172.5 -169l-135 -88q-54 106 -123 160.5t-166 54.5q-145 0 -233 -117t-111 -342h487l-18 -92h-475v-59q0 -86 4 -125h479l-18 -93h-451q32 -202 124 -306.5 t234 -104.5q194 0 316 213l78 -43q-151 -266 -435 -266q-219 0 -355.5 132.5t-178.5 374.5h-172z" />
<glyph unicode="&#x2122;" horiz-adv-x="1552" d="M29 1317v76h585v-76h-204v-690h-177v690h-204zM684 627v766h141l252 -467l236 467h131v-766h-160v503l-199 -391h-94l-209 377v-489h-98z" />
<glyph unicode="&#x25fc;" horiz-adv-x="1044" d="M0 0v1044h1044v-1044h-1044z" />
</font>
</defs>
</svg>
